<svg id="visual" viewBox="0 0 900 675" width="900" height="675" xmlns="http://www.w3.org/2000/svg" xmlns:xlink="http://www.w3.org/1999/xlink" version="1.1"><g stroke-width="1" stroke-linejoin="bevel"><path d="M437 366.7L401 465.1L456 391.7Z" fill="#871cff" stroke="#871cff"></path><path d="M437 366.7L334 348.7L401 465.1Z" fill="#9e33ff" stroke="#9e33ff"></path><path d="M401 465.1L493 473.1L456 391.7Z" fill="#7a0bff" stroke="#7a0bff"></path><path d="M401 465.1L449 532.6L493 473.1Z" fill="#992eff" stroke="#992eff"></path><path d="M437 366.7L379 283.3L334 348.7Z" fill="#7300ff" stroke="#7300ff"></path><path d="M492 248.3L379 283.3L437 366.7Z" fill="#8115ff" stroke="#8115ff"></path><path d="M334 348.7L258 472.1L401 465.1Z" fill="#9e33ff" stroke="#9e33ff"></path><path d="M401 465.1L301 577.6L449 532.6Z" fill="#9e33ff" stroke="#9e33ff"></path><path d="M334 348.7L248 447.1L258 472.1Z" fill="#8d22ff" stroke="#8d22ff"></path><path d="M224 380.7L248 447.1L334 348.7Z" fill="#8d22ff" stroke="#8d22ff"></path><path d="M379 283.3L260 318.3L334 348.7Z" fill="#8115ff" stroke="#8115ff"></path><path d="M260 318.3L224 380.7L334 348.7Z" fill="#992eff" stroke="#992eff"></path><path d="M575 332.3L437 366.7L456 391.7Z" fill="#8d22ff" stroke="#8d22ff"></path><path d="M575 332.3L492 248.3L437 366.7Z" fill="#9328ff" stroke="#9328ff"></path><path d="M379 283.3L318 184.9L260 318.3Z" fill="#871cff" stroke="#871cff"></path><path d="M606 411.7L575 332.3L456 391.7Z" fill="#7300ff" stroke="#7300ff"></path><path d="M258 472.1L301 577.6L401 465.1Z" fill="#8115ff" stroke="#8115ff"></path><path d="M607 445.1L606 411.7L493 473.1Z" fill="#9328ff" stroke="#9328ff"></path><path d="M493 473.1L606 411.7L456 391.7Z" fill="#8d22ff" stroke="#8d22ff"></path><path d="M629 536.6L607 445.1L493 473.1Z" fill="#992eff" stroke="#992eff"></path><path d="M358 675L477 616.6L449 532.6Z" fill="#8115ff" stroke="#8115ff"></path><path d="M449 532.6L477 616.6L493 473.1Z" fill="#8d22ff" stroke="#8d22ff"></path><path d="M492 248.3L350 196.9L379 283.3Z" fill="#8115ff" stroke="#8115ff"></path><path d="M248 447.1L212 539.6L258 472.1Z" fill="#ad42ff" stroke="#ad42ff"></path><path d="M258 472.1L212 539.6L301 577.6Z" fill="#a83dff" stroke="#a83dff"></path><path d="M82 518.1L212 539.6L248 447.1Z" fill="#7a0bff" stroke="#7a0bff"></path><path d="M318 184.9L223 263.3L260 318.3Z" fill="#a338ff" stroke="#a338ff"></path><path d="M260 318.3L223 263.3L224 380.7Z" fill="#7a0bff" stroke="#7a0bff"></path><path d="M224 380.7L83 404.7L248 447.1Z" fill="#a338ff" stroke="#a338ff"></path><path d="M391 89.4L318 184.9L350 196.9Z" fill="#a83dff" stroke="#a83dff"></path><path d="M350 196.9L318 184.9L379 283.3Z" fill="#9e33ff" stroke="#9e33ff"></path><path d="M477 616.6L629 536.6L493 473.1Z" fill="#7300ff" stroke="#7300ff"></path><path d="M607 445.1L713 362.7L606 411.7Z" fill="#9328ff" stroke="#9328ff"></path><path d="M293 675L358 675L301 577.6Z" fill="#9e33ff" stroke="#9e33ff"></path><path d="M301 577.6L358 675L449 532.6Z" fill="#992eff" stroke="#992eff"></path><path d="M358 675L479 675L477 616.6Z" fill="#ad42ff" stroke="#ad42ff"></path><path d="M477 616.6L642 675L629 536.6Z" fill="#992eff" stroke="#992eff"></path><path d="M212 539.6L293 675L301 577.6Z" fill="#9e33ff" stroke="#9e33ff"></path><path d="M575 332.3L542 157.9L492 248.3Z" fill="#9328ff" stroke="#9328ff"></path><path d="M492 248.3L391 89.4L350 196.9Z" fill="#9328ff" stroke="#9328ff"></path><path d="M635 157.9L542 157.9L575 332.3Z" fill="#7a0bff" stroke="#7a0bff"></path><path d="M703 562.6L690 498.1L629 536.6Z" fill="#7300ff" stroke="#7300ff"></path><path d="M629 536.6L690 498.1L607 445.1Z" fill="#992eff" stroke="#992eff"></path><path d="M606 411.7L713 362.7L575 332.3Z" fill="#a83dff" stroke="#a83dff"></path><path d="M690 498.1L713 362.7L607 445.1Z" fill="#7a0bff" stroke="#7a0bff"></path><path d="M542 157.9L391 89.4L492 248.3Z" fill="#7300ff" stroke="#7300ff"></path><path d="M49 188.9L74 309.3L223 263.3Z" fill="#992eff" stroke="#992eff"></path><path d="M74 309.3L224 380.7L223 263.3Z" fill="#9e33ff" stroke="#9e33ff"></path><path d="M74 309.3L83 404.7L224 380.7Z" fill="#871cff" stroke="#871cff"></path><path d="M212 539.6L164 675L293 675Z" fill="#8d22ff" stroke="#8d22ff"></path><path d="M642 675L703 562.6L629 536.6Z" fill="#8115ff" stroke="#8115ff"></path><path d="M690 498.1L803 392.7L713 362.7Z" fill="#7a0bff" stroke="#7a0bff"></path><path d="M713 362.7L698 245.3L575 332.3Z" fill="#7a0bff" stroke="#7a0bff"></path><path d="M635 157.9L594 131.4L542 157.9Z" fill="#992eff" stroke="#992eff"></path><path d="M542 157.9L475 65.4L391 89.4Z" fill="#8d22ff" stroke="#8d22ff"></path><path d="M83 404.7L82 518.1L248 447.1Z" fill="#8115ff" stroke="#8115ff"></path><path d="M698 245.3L635 157.9L575 332.3Z" fill="#a338ff" stroke="#a338ff"></path><path d="M172 145.9L223 263.3L318 184.9Z" fill="#9e33ff" stroke="#9e33ff"></path><path d="M0 581.6L68 572.6L82 518.1Z" fill="#a83dff" stroke="#a83dff"></path><path d="M594 131.4L475 65.4L542 157.9Z" fill="#8d22ff" stroke="#8d22ff"></path><path d="M290 52.4L318 184.9L391 89.4Z" fill="#8115ff" stroke="#8115ff"></path><path d="M290 52.4L172 145.9L318 184.9Z" fill="#8d22ff" stroke="#8d22ff"></path><path d="M479 675L642 675L477 616.6Z" fill="#871cff" stroke="#871cff"></path><path d="M148 675L164 675L212 539.6Z" fill="#8d22ff" stroke="#8d22ff"></path><path d="M68 572.6L148 675L212 539.6Z" fill="#7300ff" stroke="#7300ff"></path><path d="M0 472.1L82 518.1L83 404.7Z" fill="#7300ff" stroke="#7300ff"></path><path d="M82 518.1L68 572.6L212 539.6Z" fill="#ad42ff" stroke="#ad42ff"></path><path d="M349 0L290 52.4L391 89.4Z" fill="#9328ff" stroke="#9328ff"></path><path d="M635 157.9L689 137.4L594 131.4Z" fill="#7300ff" stroke="#7300ff"></path><path d="M618 0L474 0L475 65.4Z" fill="#8d22ff" stroke="#8d22ff"></path><path d="M700 141.9L689 137.4L635 157.9Z" fill="#ad42ff" stroke="#ad42ff"></path><path d="M700 141.9L635 157.9L698 245.3Z" fill="#8d22ff" stroke="#8d22ff"></path><path d="M832 506.1L803 392.7L690 498.1Z" fill="#8d22ff" stroke="#8d22ff"></path><path d="M713 362.7L824 330.3L698 245.3Z" fill="#871cff" stroke="#871cff"></path><path d="M832 506.1L690 498.1L703 562.6Z" fill="#8115ff" stroke="#8115ff"></path><path d="M797 146.9L700 141.9L698 245.3Z" fill="#7300ff" stroke="#7300ff"></path><path d="M0 345.7L0 472.1L83 404.7Z" fill="#ad42ff" stroke="#ad42ff"></path><path d="M0 279.3L0 345.7L74 309.3Z" fill="#a83dff" stroke="#a83dff"></path><path d="M74 309.3L0 345.7L83 404.7Z" fill="#a83dff" stroke="#a83dff"></path><path d="M642 675L757 621.6L703 562.6Z" fill="#9328ff" stroke="#9328ff"></path><path d="M67 95.4L49 188.9L172 145.9Z" fill="#871cff" stroke="#871cff"></path><path d="M474 0L349 0L391 89.4Z" fill="#ad42ff" stroke="#ad42ff"></path><path d="M474 0L391 89.4L475 65.4Z" fill="#a338ff" stroke="#a338ff"></path><path d="M475 65.4L594 131.4L618 0Z" fill="#8115ff" stroke="#8115ff"></path><path d="M618 0L594 131.4L689 137.4Z" fill="#9328ff" stroke="#9328ff"></path><path d="M172 145.9L49 188.9L223 263.3Z" fill="#a83dff" stroke="#a83dff"></path><path d="M190 44.4L172 145.9L290 52.4Z" fill="#9328ff" stroke="#9328ff"></path><path d="M199 0L190 44.4L290 52.4Z" fill="#a83dff" stroke="#a83dff"></path><path d="M0 224.9L0 279.3L74 309.3Z" fill="#7300ff" stroke="#7300ff"></path><path d="M349 0L290 0L290 52.4Z" fill="#8115ff" stroke="#8115ff"></path><path d="M900 425.7L824 330.3L803 392.7Z" fill="#992eff" stroke="#992eff"></path><path d="M803 392.7L824 330.3L713 362.7Z" fill="#7a0bff" stroke="#7a0bff"></path><path d="M642 675L741 675L757 621.6Z" fill="#7300ff" stroke="#7300ff"></path><path d="M757 621.6L832 506.1L703 562.6Z" fill="#992eff" stroke="#992eff"></path><path d="M900 588.6L832 506.1L757 621.6Z" fill="#992eff" stroke="#992eff"></path><path d="M0 472.1L0 581.6L82 518.1Z" fill="#8d22ff" stroke="#8d22ff"></path><path d="M68 572.6L0 675L148 675Z" fill="#871cff" stroke="#871cff"></path><path d="M0 128.4L0 224.9L49 188.9Z" fill="#9e33ff" stroke="#9e33ff"></path><path d="M49 188.9L0 224.9L74 309.3Z" fill="#9328ff" stroke="#9328ff"></path><path d="M290 0L199 0L290 52.4Z" fill="#9328ff" stroke="#9328ff"></path><path d="M190 44.4L67 95.4L172 145.9Z" fill="#a83dff" stroke="#a83dff"></path><path d="M48 0L67 95.4L190 44.4Z" fill="#992eff" stroke="#992eff"></path><path d="M689 0L689 137.4L788 67.4Z" fill="#7a0bff" stroke="#7a0bff"></path><path d="M689 0L618 0L689 137.4Z" fill="#ad42ff" stroke="#ad42ff"></path><path d="M824 330.3L797 146.9L698 245.3Z" fill="#8115ff" stroke="#8115ff"></path><path d="M0 581.6L0 675L68 572.6Z" fill="#8115ff" stroke="#8115ff"></path><path d="M741 675L816 675L757 621.6Z" fill="#8d22ff" stroke="#8d22ff"></path><path d="M67 95.4L0 128.4L49 188.9Z" fill="#7a0bff" stroke="#7a0bff"></path><path d="M0 0L0 128.4L67 95.4Z" fill="#8115ff" stroke="#8115ff"></path><path d="M832 506.1L900 425.7L803 392.7Z" fill="#8115ff" stroke="#8115ff"></path><path d="M824 330.3L900 162.9L797 146.9Z" fill="#ad42ff" stroke="#ad42ff"></path><path d="M900 490.1L900 425.7L832 506.1Z" fill="#7300ff" stroke="#7300ff"></path><path d="M788 67.4L689 137.4L700 141.9Z" fill="#8d22ff" stroke="#8d22ff"></path><path d="M900 588.6L900 490.1L832 506.1Z" fill="#9328ff" stroke="#9328ff"></path><path d="M900 425.7L900 327.3L824 330.3Z" fill="#8d22ff" stroke="#8d22ff"></path><path d="M900 78.4L788 67.4L797 146.9Z" fill="#9328ff" stroke="#9328ff"></path><path d="M797 146.9L788 67.4L700 141.9Z" fill="#992eff" stroke="#992eff"></path><path d="M816 675L900 588.6L757 621.6Z" fill="#7a0bff" stroke="#7a0bff"></path><path d="M199 0L48 0L190 44.4Z" fill="#7a0bff" stroke="#7a0bff"></path><path d="M900 0L775 0L788 67.4Z" fill="#8d22ff" stroke="#8d22ff"></path><path d="M788 67.4L775 0L689 0Z" fill="#9328ff" stroke="#9328ff"></path><path d="M900 327.3L900 162.9L824 330.3Z" fill="#8115ff" stroke="#8115ff"></path><path d="M816 675L900 675L900 588.6Z" fill="#ad42ff" stroke="#ad42ff"></path><path d="M48 0L0 0L67 95.4Z" fill="#7300ff" stroke="#7300ff"></path><path d="M900 162.9L900 78.4L797 146.9Z" fill="#8d22ff" stroke="#8d22ff"></path><path d="M900 78.4L900 0L788 67.4Z" fill="#8d22ff" stroke="#8d22ff"></path></g></svg>